<?xml version="1.0" encoding="UTF-8" standalone="no"?>
<!-- Created with Inkscape (http://www.inkscape.org/) -->
<svg
   xmlns:svg="http://www.w3.org/2000/svg"
   xmlns="http://www.w3.org/2000/svg"
   version="1.0"
   width="702"
   height="693"
   id="svg2">
  <defs
     id="defs5" />
  <rect
     width="702.81982"
     height="691.59717"
     x="-3.5569329"
     y="-2.6500759"
     id="rect2994"
     style="opacity:1;fill:#ffffff;fill-opacity:1;fill-rule:evenodd;stroke:#000002;stroke-width:8;stroke-linecap:round;stroke-linejoin:round;stroke-miterlimit:4;stroke-dasharray:none;stroke-opacity:1" />
  <rect
     width="662.44891"
     height="649.24225"
     x="16.18244"
     y="18.988108"
     id="rect2996"
     style="opacity:1;fill:#000000;fill-opacity:1;fill-rule:evenodd;stroke:#000002;stroke-width:8;stroke-linecap:round;stroke-linejoin:round;stroke-miterlimit:4;stroke-dasharray:none;stroke-opacity:1" />
  <path
     d="M 696,575 C 696,574.45 695.55,574 695,574 C 694.45,574 694,574.45 694,575 C 694,575.55 694.45,576 695,576 C 695.55,576 696,575.55 696,575 z"
     id="path2950"
     style="fill:#ffffff" />
  <path
     d="M 411.42857,665.42857 C 413.28766,663.56948 413.30361,663.43582 411.96482,660.93426 C 409.92668,657.12597 404,659.12197 404,663.61667 C 404,667.05383 408.66538,668.19176 411.42857,665.42857 z"
     id="path2944"
     style="fill:#000000" />
  <path
     d="M 239,353.78125 C 238.89949,353.49964 232.145,376.79279 236.0625,379.375 C 249.15016,417.00531 267.24262,451.10508 291.875,482.71875 C 311.83577,507.48645 334.46178,529.9769 358.34375,550.9375 C 329.06743,548.93709 326.83056,537.23478 304.28633,536.57031 C 257.5318,536.35908 227.06682,577.14418 203.1837,598.92751 C 226.34314,564.595 258.50164,541.08117 296.375,530 C 295.93972,525.1161 262.29744,531.46664 282.75,524.75 C 288.31146,521.94843 306.18077,519.39867 289.65625,518.3125 C 273.81033,512.93684 262.20967,525.43346 247.3125,527.125 C 207.16363,528.56986 191.85331,565.3771 178.1875,597.34375 C 173.99964,606.69616 175.58132,607.22416 166,629.09375 C 179.85059,629.20641 193.87095,628.16974 207.0625,623.875 C 227.19776,613.67113 235.3071,588.97533 253.65625,577.65625 C 264.38549,571.03768 277.91021,559.59341 289.40625,560.90625 C 244.13353,603.36792 264.91653,622.40502 276.5625,649.0625 C 291.21915,607.16684 309.75488,574.94468 363.8125,559.71875 C 376.46836,564.943 387.64784,575.48765 400.96875,580.71875 C 406.65856,584.91599 430.44288,595.89485 421.90625,581.0625 C 390.38979,565.90704 366.60642,540.67001 341.5625,517 C 279.86378,447.34208 260.77052,414.7816 239,353.78125 z"
     id="path2689"
     style="fill:#73d216" />
  <path
     d="M 94.09375,47.78125 C 80.606751,47.981061 67.22575,60.008066 81.0625,76.40625 C 86.231947,80.975331 92.415872,83.624724 105.09375,84.59375 C 148.05223,90.649873 191.43089,81.577795 225.40625,90.15625 C 234.36543,94.374774 231.27539,100.41404 228.40625,107.5 C 184.7816,215.24044 83,466.625 83,466.625 C 69.357909,500.31709 119.35618,526.35608 125.625,560.96875 C 124.89144,590.68343 101.49484,624.07666 69.53125,620.625 C 71.082294,614.14354 96.234086,590.76271 68.59375,585.875 C 39.430703,583.34707 45.391184,622.33071 65.75,631.625 C 77.351055,636.92118 94.088707,633.89314 105.71875,628.75 C 125.39457,620.04881 136.90653,596.49542 142.8125,575.8125 C 149.14982,541.65338 161.12256,508.68358 169.03125,474.9375 C 182.18823,430.28384 191.57678,384.56551 203.84375,339.75 L 473.78125,339.25 L 472.09375,603.4375 L 445.90625,605.28125 C 416.65752,607.37318 387.4484,604.09485 358.375,607.625 C 322.77804,612.14109 360.77774,658.90964 371.5,630.15625 C 372.63985,625.37946 375.97382,623.84672 380.15625,623.59375 L 572.84375,623.21875 C 581.96778,624.3352 589.81115,627.88409 595.09375,636.5 C 599.25396,644.45856 612.97709,649.84855 620.71875,642.15625 C 632.49986,630.45025 622.49881,609.79924 609.03125,608.21875 C 588.37206,605.43546 564.54564,610.01854 546.28125,602.625 L 550.5,95.0625 C 550.53048,91.394899 554.28829,86.73763 558.1875,87.3125 C 571.45414,89.268423 598.13368,90.872417 612.8125,83.75 C 622.22201,79.184348 630.23839,67.474008 619.5625,57.125 C 608.0615,45.976155 598.5466,60.566257 590.46875,68.34375 C 586.31622,72.341879 581.62013,75.468089 574.84375,74.78125 C 572.45957,74.539597 570.19307,73.870821 567.09375,73.25 C 564.10711,72.651753 560.5921,72.691184 557.46875,72.78125 C 463.26496,75.49772 369.04507,74.048454 274.875,71.0625 C 221.03303,69.722336 167.10456,71.295552 113.25,69.15625 C 113.82229,53.779506 103.93561,47.635442 94.09375,47.78125 z"
     id="path2697"
     style="fill:#ffffff" />
  <path
     d="M 267,91.125 C 265.55197,91.123981 262.95474,93.809322 262.10411,97.207937 C 244.0986,169.14733 222.23486,248.11441 208.08772,313.02615 C 207.53355,315.56884 208.02582,318.33709 210.04641,318.31451 C 266.89493,317.67922 380.85333,317.71235 470.22095,317.78326 C 470.21286,242.51377 477.92036,166.54286 477.91226,91.273368 L 267,91.125 z"
     id="path2665"
     style="fill:#000000" />
  <path
     d="M 226.39994,293.52816 C 219.85165,292.39804 214.35168,302.5176 223.625,306.02057 C 231.83974,309.12367 237.13811,295.38139 226.39994,293.52816 z"
     id="path2894"
     style="fill:#ffffff" />
  <path
     d="M 351.99421,237.75 C 350.48028,246.33369 349.92765,255.01139 349.43849,263.7076 C 346.3985,317.75232 363.36941,311.9058 362.5124,281.09225 C 362.23799,271.22576 356.46106,251.93671 351.99421,237.75 z"
     id="path2890"
     style="fill:#ff6347;fill-opacity:1" />
  <path
     d="M 268.0625,248.65625 C 262.31085,267.60996 290.66274,283.18937 306.375,278.0625 C 342.14276,266.39156 335.30778,230.52017 345.26075,216.00848 C 328.18202,227.86544 311.13597,240.11958 292.53125,249.5 C 308.76295,236.76623 326.48631,225.15684 343.79023,213.72027 C 321.29227,212.13399 280.22041,208.59168 268.0625,248.65625 z"
     id="path2673"
     style="fill:#ffa07a" />
  <path
     d="M 270.1482,267.00603 C 257.32954,259.28499 242.51143,284.47808 241.59375,293.59375 C 241.21204,297.38546 245.20248,299.46092 247.96875,297 C 257.34382,288.6598 262.17937,276.48172 270.1482,267.00603 z"
     id="path2884"
     style="fill:#ffa07a" />
  <path
     d="M 426.14967,238.93235 C 415.46025,218.09034 382.80212,212.52624 360.27819,215.18744 C 371.49756,226.14456 393.8208,232.75509 407.32768,253.76254 C 399.02078,247.62612 375.94899,229.47145 357.97379,220.47202 C 363.62145,253.45502 388.54546,272.22363 402.47762,274.69508 C 420.57724,277.9058 438.51778,263.04743 426.14967,238.93235 z"
     id="path2872"
     style="fill:#ffa07a" />
  <path
     d="M 439.25,200.9883 C 432.02274,187.9895 397.78922,197.67549 385.59781,206.5 C 400.13715,211.92125 449.47566,219.37998 439.25,200.9883 z"
     id="path2854"
     style="fill:#ff6347;fill-opacity:1" />
  <path
     d="M 415.4823,175.60265 C 458.89996,136.15624 383.36676,99.782034 360.99387,151.81628 C 358.27316,158.14403 348.92492,192.91918 351.02423,208.43532 C 360.41022,194.86905 376.98366,168.01407 390.64617,158.26408 C 384.69098,167.4655 353.36423,201.92936 356.35446,211.63097 C 374.90144,197.52329 398.33126,191.18494 415.4823,175.60265 z"
     id="path2852"
     style="fill:#ffa07a" />
  <path
     d="M 315.72787,206.39524 C 299.36161,200.37351 281.61694,191.69213 268.32215,190.58637 C 253.10389,190.37531 249.16185,201.28967 263.99625,206.27585 C 274.21171,208.80708 308.41702,211.7104 315.72787,206.39524 z"
     id="path2850"
     style="fill:#ff6347;fill-opacity:1" />
  <path
     d="M 299.71635,156.88477 C 320.07739,169.02831 340.99499,202.0616 345.42758,201.67521 C 340.29893,174.13498 335.8579,150.69256 314.62547,133.25808 C 287.41596,110.91567 265.23028,146.88731 276.13315,172.3176 C 281.82048,185.58296 296.06465,181.66099 342.71862,205.33536 C 342.74486,198.91949 309.7294,169.29442 299.71635,156.88477 z"
     id="path2848"
     style="fill:#ffa07a" />
  <path
     d="M 343.97065,114.26605 C 332.53947,110.30569 341.12063,155.33437 344.96452,167.58733 C 352.00692,146.65879 355.37757,118.21801 343.97065,114.26605 z"
     id="path2840"
     style="fill:#ff6347" />
  <path
     d="M 66.8,569.8 C 66.768348,563.84084 70.63933,560.139 73,555.37471 C 65.065618,549.88545 55.155322,545.52007 47.132251,525.50571 C 64.488436,542.65168 63.866748,548.59933 85.834416,541.87045 C 90.627442,540.67875 93.388321,536.53409 95,532.12759 C 61.510146,521.76764 76.277484,537.70704 43.494301,503 C 30.954995,516.60975 36.330749,549.78475 54.309085,557.70916 C 62.507565,558.25632 53.589401,565.33805 58.0363,569.23048 C 60.548038,571.26436 65.043496,571.5565 66.8,569.8 z"
     id="path2762"
     style="fill:#73d216;fill-opacity:1" />
  <path
     d="M 412.98181,570.25 C 388.84868,535.17753 382.06661,467.83144 442.76697,483.48111 C 414.84632,418.41679 369.68483,476.23641 371.65605,469.17205 C 373.19564,423.21157 428.5343,380.63326 427.27865,380.24742 C 368.30336,385.69355 353.7116,422.27901 345.38335,434.50137 C 348.74351,401.48682 335.22708,367.27807 299.86153,359.90925 C 328.54993,392.37336 316.19489,432.80679 319.06667,469.01793 C 320.00161,474.47981 321.31078,482.57876 326.5297,484.80363 C 325.80138,477.80889 320.55167,462.31734 326.98469,460 C 329.37773,470.51336 329.13352,482.25679 335.26738,491.66407 C 338.76906,477.41174 334.51174,461.97975 341.9693,448.25607 C 343.12675,473.55754 342.3426,485.17166 353.39453,507.5 C 355.58249,489.20655 355.57056,470.53519 360.42192,452.67471 C 354.51787,494.17731 377.11554,541.15766 411.5957,570.73842 C 412.00952,571.25317 413.13444,570.95546 412.98181,570.25 z"
     id="path2760"
     style="fill:#73d216" />
  <path
     d="M 640.55035,547.909 C 641.63591,544.81254 643.67003,538.09262 640.1052,536.73315 C 636.79113,540.20072 634.11074,546.2241 628.49119,545.97075 C 627.79256,544.37298 638.87131,525.35011 628.78375,526.25178 C 625.39525,528.04954 622.70926,536.17635 618.39303,532.57973 C 617.07818,532.59551 617.98596,526.97825 619.62712,523.1386 C 631.10856,494.54873 640.04307,493.69132 669.61134,516.8607 C 668.33928,482.86993 614.87065,444.40762 608.54737,491.3595 C 581.81271,440.247 558.19532,510.62423 568.56116,532.79312 C 575.43469,511.05909 585.7947,498.08131 602.0055,521.34365 C 603.8255,523.29891 610.49593,531.29574 603.89809,530.04594 C 599.86389,528.13223 595.23111,525.77523 590.76615,527.89881 C 584.80631,535.00401 587.87414,547.01271 593.55633,553.37952 C 607.80322,567.65591 630.67668,567.26598 640.55035,547.909 z"
     id="path2752"
     style="fill:#73d216;fill-opacity:1" />
  <path
     d="M 204.40625,430.15625 C 193.0642,505.33287 213.37937,520.02235 264.65625,517 C 277.18715,516.26141 289.2812,513.34494 301.875,512.21875 C 305.28117,512.84072 234.73519,503.86478 235.4223,496.37378 C 238.37132,500.3312 303.16858,513.50479 298.98391,507.23994 C 290.18272,499.87782 278.83371,490.64538 266.90625,489.25 C 217.73277,483.49724 221.25045,475.09569 204.40625,430.15625 z"
     id="path2681"
     style="fill:#73d216" />
  <path
     d="M 204.93783,402.71298 C 200.91541,422.68326 255.86421,465.34738 278.25,477.9258 C 266.29087,472.5084 210.82387,387.00452 204.93783,402.71298 z"
     id="path2704"
     style="fill:#73d216" />
  <path
     d="M 570.86096,439.95604 C 586.07256,445.60035 591.14999,463.59776 601.70055,466.73809 C 593.52992,427.22685 581.39512,445.1961 570.86096,439.95604 z"
     id="path2692"
     style="fill:#73d216;fill-opacity:1" />
  <path
     d="M 408.34887,437.57831 C 418.78233,430.68192 457.68862,424.55389 458.43063,423.32018 C 459.09709,421.58341 457.29628,414.97642 456.17245,415.03513 C 437.73285,419.32819 415.69542,423.98847 402.55577,438.09024 C 403.33498,439.35103 404.68391,439.23182 408.34887,437.57831 z"
     id="path2674"
     style="fill:#73d216;fill-opacity:1" />
  <path
     d="M 616.4375,321.71875 C 617.5552,325.42288 622.64971,329.30992 625.5625,332.75 C 630.23679,337.35977 641.5282,348.08002 639.25,355.21875 C 637.9356,351.54976 632.94886,339.9105 628.1875,339.25 C 622.2099,338.26113 624.49067,345.54226 626.6875,348.28125 C 633.6365,363.13632 631.07159,365.98062 628.3125,358 C 623.6429,352.98859 621.48187,360.85424 619.84375,364.1875 C 607.53583,382.66808 577.87946,414.10792 599.8125,436.59375 C 614.02936,407.18511 660.77295,377.63123 643.46875,341.09375 C 637.59094,331.2947 627.35212,324.62488 616.4375,321.71875 z"
     id="path3246"
     style="fill:#73d216;fill-opacity:1" />
  <path
     d="M 575.67859,316.33623 C 603.97671,337.17083 600.14335,347.93113 603.09894,378.72927 C 629.30268,349.93555 623.0669,313.40694 575.67859,316.33623 z"
     id="path2630"
     style="fill:#73d216;fill-opacity:1" />
  <path
     d="M 607.97885,337.79361 C 605.44026,331.21114 599.18434,327.82049 597.0735,327.15705 C 595.6192,326.69996 612.41726,340.80685 609.20775,356.19784 C 608.95979,357.38692 612.81557,350.33507 607.97885,337.79361 z"
     id="path2626"
     style="fill:#000000" />
  <path
     d="M 74.352234,336.96619 C 76.9071,324.6794 71.770854,314.54048 87.026939,312.86369 C 95.346075,311.94934 103.35739,309.32348 111.75,309.05082 C 115.16693,306.3315 110.00889,298.75245 106.62894,298.58304 C 68.540817,285.35223 68.211539,309.70065 56.366524,346.52711 C 62.442425,268.50317 102.8913,299.40896 103.58214,293.52131 C 103.02895,286.81885 96.586539,282.43961 90.879926,280.41507 C 52.312531,266.73247 45.035053,315.38365 47.218992,342.86243 C 48.052085,353.34459 46.072549,363.81439 45.090787,374.24462 C 54.264047,375.66297 72.085742,347.86614 74.352234,336.96619 z"
     id="path2624"
     style="fill:#73d216;fill-opacity:1" />
  <path
     d="M 574,307.91458 C 673.73648,278.19999 623.48654,216.91484 629.76806,154.63123 C 629.92651,150.03781 636.90983,135.0978 632.01351,133.05615 C 622.97272,140.19469 617.16743,155.65422 614.73894,156.49257 C 624.8389,133.15377 632.12187,129.27371 640.05987,118.59706 C 645.27363,113.67219 639.34627,108.00984 634.42093,112.93733 C 552.75795,189.0678 621.60388,218.05844 573.4564,299.84998 C 571.82498,302.99583 560.88634,309.88159 570.30781,308.65381 C 571.54522,308.4425 572.77648,308.19526 574,307.91458 z"
     id="path2580"
     style="fill:#73d216;fill-opacity:1" />
  <path
     d="M 604.47293,280.9562 C 617.04735,231.31704 595.9194,192.01135 616.70083,152.23136 C 601.87685,206.87202 625.17121,248.75209 604.47293,280.9562 z"
     id="path2578"
     style="fill:#000000" />
  <path
     d="M 105.907,254.12942 C 107.53366,259.01102 110.09427,272.1346 103.36668,271.44037 C 85.578053,217.46909 54.389005,194.04374 47.96875,147 C 42.134914,168.50294 41.558282,191.13989 43.238213,213.24248 C 43.457349,221.88099 48.035763,229.26797 50.584568,237.18416 C 57.281514,247.16884 66.809322,254.9402 77.113436,260.97325 C 84.579729,266.25124 91.59939,272.22309 99.565439,276.74132 C 106.05925,284.30764 108.84651,294.47256 115.88683,301.72765 C 119.68292,308.85126 133.09849,307.94522 129.16833,298.03266 C 124.28766,291.18789 116.41545,285.96584 114.88284,277.10587 C 111.75592,268.90351 118.19417,262.26863 123.20921,256.64869 C 131.38839,205.07783 113.65316,165.2835 156,125.8125 C 73.117853,121.27764 90.460242,205.92364 105.907,254.12942 z"
     id="path2972"
     style="fill:#73d216;fill-opacity:1" />
  <path
     d="M 41.1875,190.59375 C 41.043711,190.44996 40.886325,190.64822 40.6875,191 C 40.751633,191.01409 40.811254,191.0105 40.875,190.96875 C 40.974288,190.90372 41.089801,190.78606 41.1875,190.59375 z"
     id="path2970"
     style="fill:#73d216;fill-opacity:1" />
  <path
     d="M 49.478621,189.41445 C 57.418052,225.54691 64.434134,226.83579 91.312753,262.79884 C 70.151213,243.93141 46.92402,213.23517 49.478621,189.41445 z"
     id="path2564"
     style="fill:#000000" />
  <path
     d="M 115.08048,154.83649 C 94.01744,188.32153 111.07648,213.09654 112.46497,246.10405 C 97.650528,198.85633 97.628058,175.81994 115.08048,154.83649 z"
     id="path2562"
     style="fill:#000000" />
  <path
     d="M 262.60624,296.50402 C 256.05795,295.3739 250.55798,305.49346 259.8313,308.99643 C 268.04604,312.09953 273.34441,298.35725 262.60624,296.50402 z"
     id="path2661"
     style="fill:#ffffff" />
  <path
     d="M 292.36484,297.99195 C 285.81655,296.86183 280.31658,306.98139 289.5899,310.48436 C 297.80464,313.58746 303.10301,299.84518 292.36484,297.99195 z"
     id="path2663"
     style="fill:#ffffff" />
  <path
     d="M 278.97347,281.62472 C 272.42518,280.4946 266.92521,290.61416 276.19853,294.11713 C 284.41327,297.22023 289.71164,283.47795 278.97347,281.62472 z"
     id="path2667"
     style="fill:#ffffff" />
  <path
     d="M 312.69989,284.1046 C 306.1516,282.97448 300.65163,293.09404 309.92495,296.59701 C 318.13969,299.70011 323.43806,285.95783 312.69989,284.1046 z"
     id="path2669"
     style="fill:#ffffff" />
  <path
     d="M 328.07517,298.9839 C 321.52688,297.85378 316.02691,307.97334 325.30023,311.47631 C 333.51497,314.57941 338.81334,300.83713 328.07517,298.9839 z"
     id="path2671"
     style="fill:#ffffff" />
  <path
     d="M 337.00275,262.7776 C 330.45446,261.64748 324.95449,271.76704 334.22781,275.27001 C 342.44255,278.37311 347.74092,264.63083 337.00275,262.7776 z"
     id="path2675"
     style="fill:#ffffff" />
  <path
     d="M 375.19296,267.24139 C 368.64467,266.11127 363.1447,276.23083 372.41802,279.7338 C 380.63276,282.8369 385.93113,269.09462 375.19296,267.24139 z"
     id="path2677"
     style="fill:#ffffff" />
  <path
     d="M 389.08031,284.1046 C 382.53202,282.97448 377.03205,293.09404 386.30537,296.59701 C 394.52011,299.70011 399.81848,285.95783 389.08031,284.1046 z"
     id="path2679"
     style="fill:#ffffff" />
  <path
     d="M 408.91938,299.97586 C 402.37109,298.84574 396.87112,308.9653 406.14444,312.46827 C 414.35918,315.57137 419.65755,301.82909 408.91938,299.97586 z"
     id="path2683"
     style="fill:#ffffff" />
  <path
     d="M 426.27857,280.13679 C 419.73028,279.00667 414.23031,289.12623 423.50363,292.6292 C 431.71837,295.7323 437.01674,281.99002 426.27857,280.13679 z"
     id="path2685"
     style="fill:#ffffff" />
  <path
     d="M 453.55729,287.57644 C 447.009,286.44632 441.50903,296.56588 450.78235,300.06885 C 458.99709,303.17195 464.29546,289.42967 453.55729,287.57644 z"
     id="path2687"
     style="fill:#ffffff" />
  <path
     d="M 443.63776,255.83393 C 437.08947,254.70381 431.5895,264.82337 440.86282,268.32634 C 449.07756,271.42944 454.37593,257.68716 443.63776,255.83393 z"
     id="path2691"
     style="fill:#ffffff" />
  <path
     d="M 455.5412,230.53912 C 448.99291,229.409 443.49294,239.52856 452.76626,243.03153 C 460.981,246.13463 466.27937,232.39235 455.5412,230.53912 z"
     id="path2693"
     style="fill:#ffffff" />
  <path
     d="M 458.02108,203.2604 C 451.47279,202.13028 445.97282,212.24984 455.24614,215.75281 C 463.46088,218.85591 468.75925,205.11363 458.02108,203.2604 z"
     id="path2695"
     style="fill:#ffffff" />
  <path
     d="M 453.06131,177.46961 C 446.51302,176.33949 441.01305,186.45905 450.28637,189.96202 C 458.50111,193.06512 463.79948,179.32284 453.06131,177.46961 z"
     id="path2699"
     style="fill:#ffffff" />
  <path
     d="M 443.63775,155.15066 C 437.08946,154.02054 431.58949,164.1401 440.86281,167.64307 C 449.07755,170.74617 454.37592,157.00389 443.63775,155.15066 z"
     id="path2701"
     style="fill:#ffffff" />
  <path
     d="M 456.03717,130.8478 C 449.48888,129.71768 443.98891,139.83724 453.26223,143.34021 C 461.47697,146.44331 466.77534,132.70103 456.03717,130.8478 z"
     id="path2703"
     style="fill:#ffffff" />
  <path
     d="M 437.19005,113.48861 C 430.64176,112.35849 425.14179,122.47805 434.41511,125.98102 C 442.62985,129.08412 447.92822,115.34184 437.19005,113.48861 z"
     id="path2707"
     style="fill:#ffffff" />
  <path
     d="M 454.05326,98.609308 C 447.50497,97.479188 442.005,107.59875 451.27832,111.10172 C 459.49306,114.20482 464.79143,100.46254 454.05326,98.609308 z"
     id="path2709"
     style="fill:#ffffff" />
  <path
     d="M 412.88719,102.08115 C 406.3389,100.95103 400.83893,111.07059 410.11225,114.57356 C 418.32699,117.67666 423.62536,103.93438 412.88719,102.08115 z"
     id="path2711"
     style="fill:#ffffff" />
  <path
     d="M 388.08835,99.601266 C 381.54006,98.471146 376.04009,108.59071 385.31341,112.09368 C 393.52815,115.19678 398.82652,101.4545 388.08835,99.601266 z"
     id="path2713"
     style="fill:#ffffff" />
  <path
     d="M 362.79354,97.617359 C 356.24525,96.487239 350.74528,106.6068 360.0186,110.10977 C 368.23334,113.21287 373.53171,99.470593 362.79354,97.617359 z"
     id="path2715"
     style="fill:#ffffff" />
  <path
     d="M 334.02689,96.625406 C 327.4786,95.495286 321.97863,105.61485 331.25195,109.11782 C 339.46669,112.22092 344.76506,98.47864 334.02689,96.625406 z"
     id="path2717"
     style="fill:#ffffff" />
  <path
     d="M 315.17977,108.03287 C 308.63148,106.90275 303.13151,117.02231 312.40483,120.52528 C 320.61957,123.62838 325.91794,109.8861 315.17977,108.03287 z"
     id="path2719"
     style="fill:#ffffff" />
  <path
     d="M 295.3407,94.145522 C 288.79241,93.015402 283.29244,103.13496 292.56576,106.63793 C 300.7805,109.74103 306.07887,95.998752 295.3407,94.145522 z"
     id="path2721"
     style="fill:#ffffff" />
  <path
     d="M 272.52577,112.99264 C 265.97748,111.86252 260.47751,121.98208 269.75083,125.48505 C 277.96557,128.58815 283.26394,114.84587 272.52577,112.99264 z"
     id="path2723"
     style="fill:#ffffff" />
  <path
     d="M 257.64647,167.0541 C 251.09818,165.92398 245.59821,176.04354 254.87153,179.54651 C 263.08627,182.64961 268.38464,168.90733 257.64647,167.0541 z"
     id="path2725"
     style="fill:#ffffff" />
  <path
     d="M 248.71889,208.22017 C 242.1706,207.09005 236.67063,217.20961 245.94395,220.71258 C 254.15869,223.81568 259.45706,210.0734 248.71889,208.22017 z"
     id="path2727"
     style="fill:#ffffff" />
  <path
     d="M 252.6867,232.02705 C 246.13841,230.89693 240.63844,241.01649 249.91176,244.51946 C 258.1265,247.62256 263.42487,233.88028 252.6867,232.02705 z"
     id="path2729"
     style="fill:#ffffff" />
  <path
     d="M 238.30338,256.82589 C 231.75509,255.69577 226.25512,265.81533 235.52844,269.3183 C 243.74318,272.4214 249.04155,258.67912 238.30338,256.82589 z"
     id="path2731"
     style="fill:#ffffff" />
  <path
     d="M 218.96029,349.07755 C 212.412,347.94743 206.91203,358.06699 216.18535,361.56996 C 224.40009,364.67306 229.69846,350.93078 218.96029,349.07755 z"
     id="path2755"
     style="fill:#ffffff" />
  <path
     d="M 212.51259,373.38041 C 205.9643,372.25029 200.46433,382.36985 209.73765,385.87282 C 217.95239,388.97592 223.25076,375.23364 212.51259,373.38041 z"
     id="path2757"
     style="fill:#ffffff" />
  <path
     d="M 229.3758,391.73155 C 222.82751,390.60143 217.32754,400.72099 226.60086,404.22396 C 234.8156,407.32706 240.11397,393.58478 229.3758,391.73155 z"
     id="path2759"
     style="fill:#ffffff" />
  <path
     d="M 240.78326,408.09878 C 234.23497,406.96866 228.735,417.08822 238.00832,420.59119 C 246.22306,423.69429 251.52143,409.95201 240.78326,408.09878 z"
     id="path2761"
     style="fill:#ffffff" />
  <path
     d="M 264.09417,348.0856 C 257.54588,346.95548 252.04591,357.07504 261.31923,360.57801 C 269.53397,363.68111 274.83234,349.93883 264.09417,348.0856 z"
     id="path2763"
     style="fill:#ffffff" />
  <path
     d="M 267.56601,370.40455 C 261.01772,369.27443 255.51775,379.39399 264.79107,382.89696 C 273.00581,386.00006 278.30418,372.25778 267.56601,370.40455 z"
     id="path2765"
     style="fill:#ffffff" />
  <path
     d="M 275.99761,396.69132 C 269.44932,395.5612 263.94935,405.68076 273.22267,409.18373 C 281.43741,412.28683 286.73578,398.54455 275.99761,396.69132 z"
     id="path2767"
     style="fill:#ffffff" />
  <path
     d="M 290.38093,424.46602 C 283.83264,423.3359 278.33267,433.45546 287.60599,436.95843 C 295.82073,440.06153 301.1191,426.31925 290.38093,424.46602 z"
     id="path2769"
     style="fill:#ffffff" />
  <path
     d="M 298.31656,401.15511 C 291.76827,400.02499 286.2683,410.14455 295.54162,413.64752 C 303.75636,416.75062 309.05473,403.00834 298.31656,401.15511 z"
     id="path2771"
     style="fill:#ffffff" />
  <path
     d="M 289.38898,374.86834 C 282.84069,373.73822 277.34072,383.85778 286.61404,387.36075 C 294.82878,390.46385 300.12715,376.72157 289.38898,374.86834 z"
     id="path2773"
     style="fill:#ffffff" />
  <path
     d="M 285.91714,349.07755 C 279.36885,347.94743 273.86888,358.06699 283.1422,361.56996 C 291.35694,364.67306 296.65531,350.93078 285.91714,349.07755 z"
     id="path2775"
     style="fill:#ffffff" />
  <path
     d="M 310.71598,345.10974 C 304.16769,343.97962 298.66772,354.09918 307.94104,357.60215 C 316.15578,360.70525 321.45415,346.96297 310.71598,345.10974 z"
     id="path2777"
     style="fill:#ffffff" />
  <path
     d="M 339.48263,352.54939 C 332.93434,351.41927 327.43437,361.53883 336.70769,365.0418 C 344.92243,368.1449 350.2208,354.40262 339.48263,352.54939 z"
     id="path2779"
     style="fill:#ffffff" />
  <path
     d="M 355.35389,380.32409 C 348.8056,379.19397 343.30563,389.31353 352.57895,392.8165 C 360.79369,395.9196 366.09206,382.17732 355.35389,380.32409 z"
     id="path2781"
     style="fill:#ffffff" />
  <path
     d="M 369.24124,354.03732 C 362.69295,352.9072 357.19298,363.02676 366.4663,366.52973 C 374.68104,369.63283 379.97941,355.89055 369.24124,354.03732 z"
     id="path2783"
     style="fill:#ffffff" />
  <path
     d="M 397.01594,355.52525 C 390.46765,354.39513 384.96768,364.51469 394.241,368.01766 C 402.45574,371.12076 407.75411,357.37848 397.01594,355.52525 z"
     id="path2785"
     style="fill:#ffffff" />
  <path
     d="M 422.80673,352.05341 C 416.25844,350.92329 410.75847,361.04285 420.03179,364.54582 C 428.24653,367.64892 433.5449,353.90664 422.80673,352.05341 z"
     id="path2787"
     style="fill:#ffffff" />
  <path
     d="M 451.57338,350.56548 C 445.02509,349.43536 439.52512,359.55492 448.79844,363.05789 C 457.01318,366.16099 462.31155,352.41871 451.57338,350.56548 z"
     id="path2789"
     style="fill:#ffffff" />
  <path
     d="M 445.12568,372.88443 C 438.57739,371.75431 433.07742,381.87387 442.35074,385.37684 C 450.56548,388.47994 455.86385,374.73766 445.12568,372.88443 z"
     id="path2791"
     style="fill:#ffffff" />
  <path
     d="M 432.72626,396.19534 C 426.17797,395.06522 420.678,405.18478 429.95132,408.68775 C 438.16606,411.79085 443.46443,398.04857 432.72626,396.19534 z"
     id="path2793"
     style="fill:#ffffff" />
  <path
     d="M 456.53315,435.3775 C 449.98486,434.24738 444.48489,444.36694 453.75821,447.86991 C 461.97295,450.97301 467.27132,437.23073 456.53315,435.3775 z"
     id="path2795"
     style="fill:#ffffff" />
  <path
     d="M 307.74013,453.72864 C 301.19184,452.59852 295.69187,462.71808 304.96519,466.22105 C 313.17993,469.32415 318.4783,455.58187 307.74013,453.72864 z"
     id="path2797"
     style="fill:#ffffff" />
  <path
     d="M 242.76718,461.16829 C 236.21889,460.03817 230.71892,470.15773 239.99224,473.6607 C 248.20698,476.7638 253.50535,463.02152 242.76718,461.16829 z"
     id="path2799"
     style="fill:#ffffff" />
  <path
     d="M 224.91202,445.79301 C 218.36373,444.66289 212.86376,454.78245 222.13708,458.28542 C 230.35182,461.38852 235.65019,447.64624 224.91202,445.79301 z"
     id="path2801"
     style="fill:#ffffff" />
  <path
     d="M 457.5251,462.16024 C 450.97681,461.03012 445.47684,471.14968 454.75016,474.65265 C 462.9649,477.75575 468.26327,464.01347 457.5251,462.16024 z"
     id="path2803"
     style="fill:#ffffff" />
  <path
     d="M 452.06936,488.94298 C 445.52107,487.81286 440.0211,497.93242 449.29442,501.43539 C 457.50916,504.53849 462.80753,490.79621 452.06936,488.94298 z"
     id="path2805"
     style="fill:#ffffff" />
  <path
     d="M 424.79064,489.93493 C 418.24235,488.80481 412.74238,498.92437 422.0157,502.42734 C 430.23044,505.53044 435.52881,491.78816 424.79064,489.93493 z"
     id="path2807"
     style="fill:#ffffff" />
  <path
     d="M 414.37513,517.70963 C 407.82684,516.57951 402.32687,526.69907 411.60019,530.20204 C 419.81493,533.30514 425.1133,519.56286 414.37513,517.70963 z"
     id="path2809"
     style="fill:#ffffff" />
  <path
     d="M 438.18201,520.18951 C 431.63372,519.05939 426.13375,529.17895 435.40707,532.68192 C 443.62181,535.78502 448.92018,522.04274 438.18201,520.18951 z"
     id="path2811"
     style="fill:#ffffff" />
  <path
     d="M 426.77455,545.9803 C 420.22626,544.85018 414.72629,554.96974 423.99961,558.47271 C 432.21435,561.57581 437.51272,547.83353 426.77455,545.9803 z"
     id="path2813"
     style="fill:#ffffff" />
  <path
     d="M 450.58143,550.94007 C 444.03314,549.80995 438.53317,559.92951 447.80649,563.43248 C 456.02123,566.53558 461.3196,552.7933 450.58143,550.94007 z"
     id="path2815"
     style="fill:#ffffff" />
  <path
     d="M 464.96475,530.60502 C 458.41646,529.4749 452.91649,539.59446 462.18981,543.09743 C 470.40455,546.20053 475.70292,532.45825 464.96475,530.60502 z"
     id="path2817"
     style="fill:#ffffff" />
  <path
     d="M 439.66994,573.755 C 433.12165,572.62488 427.62168,582.74444 436.895,586.24741 C 445.10974,589.35051 450.40811,575.60823 439.66994,573.755 z"
     id="path2819"
     style="fill:#ffffff" />
  <path
     d="M 398.50387,587.64235 C 391.95558,586.51223 386.45561,596.63179 395.72893,600.13476 C 403.94367,603.23786 409.24204,589.49558 398.50387,587.64235 z"
     id="path2821"
     style="fill:#ffffff" />
  <path
     d="M 371.72113,578.71477 C 365.17284,577.58465 359.67287,587.70421 368.94619,591.20718 C 377.16093,594.31028 382.4593,580.568 371.72113,578.71477 z"
     id="path2823"
     style="fill:#ffffff" />
  <path
     d="M 340.4746,575.73891 C 333.92631,574.60879 328.42634,584.72835 337.69966,588.23132 C 345.9144,591.33442 351.21277,577.59214 340.4746,575.73891 z"
     id="path2825"
     style="fill:#ffffff" />
  <path
     d="M 332.53897,601.03372 C 325.99068,599.9036 320.49071,610.02316 329.76403,613.52613 C 337.97877,616.62923 343.27714,602.88695 332.53897,601.03372 z"
     id="path2827"
     style="fill:#ffffff" />
  <path
     d="M 308.73209,603.01763 C 302.1838,601.88751 296.68383,612.00707 305.95715,615.51004 C 314.17189,618.61314 319.47026,604.87086 308.73209,603.01763 z"
     id="path2829"
     style="fill:#ffffff" />
  <path
     d="M 315.67576,624.34463 C 309.12747,623.21451 303.6275,633.33407 312.90082,636.83704 C 321.11556,639.94014 326.41393,626.19786 315.67576,624.34463 z"
     id="path2831"
     style="fill:#ffffff" />
  <path
     d="M 192.17756,445.79301 C 185.62927,444.66289 180.1293,454.78245 189.40262,458.28542 C 197.61736,461.38852 202.91573,447.64624 192.17756,445.79301 z"
     id="path2833"
     style="fill:#ffffff" />
  <path
     d="M 186.72182,478.52747 C 180.17353,477.39735 174.67356,487.51691 183.94688,491.01988 C 192.16162,494.12298 197.45999,480.3807 186.72182,478.52747 z"
     id="path2835"
     style="fill:#ffffff" />
  <path
     d="M 200.11319,507.29412 C 193.5649,506.164 188.06493,516.28356 197.33825,519.78653 C 205.55299,522.88963 210.85136,509.14735 200.11319,507.29412 z"
     id="path2837"
     style="fill:#ffffff" />
  <path
     d="M 172.83447,516.71768 C 166.28618,515.58756 160.78621,525.70712 170.05953,529.21009 C 178.27427,532.31319 183.57264,518.57091 172.83447,516.71768 z"
     id="path2839"
     style="fill:#ffffff" />
  <path
     d="M 187.21779,537.5487 C 180.6695,536.41858 175.16953,546.53814 184.44285,550.04111 C 192.65759,553.14421 197.95596,539.40193 187.21779,537.5487 z"
     id="path2841"
     style="fill:#ffffff" />
  <path
     d="M 163.90688,554.41191 C 157.35859,553.28179 151.85862,563.40135 161.13194,566.90432 C 169.34668,570.00742 174.64505,556.26514 163.90688,554.41191 z"
     id="path2843"
     style="fill:#ffffff" />
  <path
     d="M 165.39481,581.19465 C 158.84652,580.06453 153.34655,590.18409 162.61987,593.68706 C 170.83461,596.79016 176.13298,583.04788 165.39481,581.19465 z"
     id="path2845"
     style="fill:#ffffff" />
  <path
     d="M 150.51551,606.98544 C 143.96722,605.85532 138.46725,615.97488 147.74057,619.47785 C 155.95531,622.58095 161.25368,608.83867 150.51551,606.98544 z"
     id="path2847"
     style="fill:#ffffff" />
  <path
     d="M 254.67062,586.15442 C 248.12233,585.0243 242.62236,595.14386 251.89568,598.64683 C 260.11042,601.74993 265.40879,588.00765 254.67062,586.15442 z"
     id="path2849"
     style="fill:#ffffff" />
  <path
     d="M 246.73499,606.98544 C 240.1867,605.85532 234.68673,615.97488 243.96005,619.47785 C 252.17479,622.58095 257.47316,608.83867 246.73499,606.98544 z"
     id="path2851"
     style="fill:#ffffff" />
  <path
     d="M 228.38385,624.8406 C 221.83556,623.71048 216.33559,633.83004 225.60891,637.33301 C 233.82365,640.43611 239.12202,626.69383 228.38385,624.8406 z"
     id="path2853"
     style="fill:#ffffff" />
  <path
     d="M 255.66257,635.75209 C 249.11428,634.62197 243.61431,644.74153 252.88763,648.2445 C 261.10237,651.3476 266.40074,637.60532 255.66257,635.75209 z"
     id="path2855"
     style="fill:#ffffff" />
  <path
     d="M 224.91201,649.63944 C 218.36372,648.50932 212.86375,658.62888 222.13707,662.13185 C 230.35181,665.23495 235.65018,651.49267 224.91201,649.63944 z"
     id="path2857"
     style="fill:#ffffff" />
  <path
     d="M 189.69766,638.23198 C 183.14937,637.10186 177.6494,647.22142 186.92272,650.72439 C 195.13746,653.82749 200.43583,640.08521 189.69766,638.23198 z"
     id="path2859"
     style="fill:#ffffff" />
  <path
     d="M 158.45113,650.13542 C 151.90284,649.0053 146.40287,659.12486 155.67619,662.62783 C 163.89093,665.73093 169.1893,651.98865 158.45113,650.13542 z"
     id="path2861"
     style="fill:#ffffff" />
  <path
     d="M 125.71667,633.27221 C 119.16838,632.14209 113.66841,642.26165 122.94173,645.76462 C 131.15647,648.86772 136.45484,635.12544 125.71667,633.27221 z"
     id="path2863"
     style="fill:#ffffff" />
  <path
     d="M 309.72404,649.63944 C 303.17575,648.50932 297.67578,658.62888 306.9491,662.13185 C 315.16384,665.23495 320.46221,651.49267 309.72404,649.63944 z"
     id="path2865"
     style="fill:#ffffff" />
  <path
     d="M 337.00276,643.19174 C 330.45447,642.06162 324.9545,652.18118 334.22782,655.68415 C 342.44256,658.78725 347.74093,645.04497 337.00276,643.19174 z"
     id="path2867"
     style="fill:#ffffff" />
  <path
     d="M 366.76136,650.13541 C 360.21307,649.00529 354.7131,659.12485 363.98642,662.62782 C 372.20116,665.73092 377.49953,651.98864 366.76136,650.13541 z"
     id="path2869"
     style="fill:#ffffff" />
  <path
     d="M 392.55215,632.28025 C 386.00386,631.15013 380.50389,641.26969 389.77721,644.77266 C 397.99195,647.87576 403.29032,634.13348 392.55215,632.28025 z"
     id="path2891"
     style="fill:#ffffff" />
  <path
     d="M 426.27857,632.28025 C 419.73028,631.15013 414.23031,641.26969 423.50363,644.77266 C 431.71837,647.87576 437.01674,634.13348 426.27857,632.28025 z"
     id="path2893"
     style="fill:#ffffff" />
  <path
     d="M 448.10155,649.63944 C 441.55326,648.50932 436.05329,658.62888 445.32661,662.13185 C 453.54135,665.23495 458.83972,651.49267 448.10155,649.63944 z"
     id="path2895"
     style="fill:#ffffff" />
  <path
     d="M 467.94062,630.29634 C 461.39233,629.16622 455.89236,639.28578 465.16568,642.78875 C 473.38042,645.89185 478.67879,632.14957 467.94062,630.29634 z"
     id="path2897"
     style="fill:#ffffff" />
  <path
     d="M 481.33199,651.62334 C 474.7837,650.49322 469.28373,660.61278 478.55705,664.11575 C 486.77179,667.21885 492.07016,653.47657 481.33199,651.62334 z"
     id="path2899"
     style="fill:#ffffff" />
  <path
     d="M 501.17106,630.29634 C 494.62277,629.16622 489.1228,639.28578 498.39612,642.78875 C 506.61086,645.89185 511.90923,632.14957 501.17106,630.29634 z"
     id="path2901"
     style="fill:#ffffff" />
  <path
     d="M 520.51415,652.61529 C 513.96586,651.48517 508.46589,661.60473 517.73921,665.1077 C 525.95395,668.2108 531.25232,654.46852 520.51415,652.61529 z"
     id="path2903"
     style="fill:#ffffff" />
  <path
     d="M 538.86529,632.77622 C 532.317,631.6461 526.81703,641.76566 536.09035,645.26863 C 544.30509,648.37173 549.60346,634.62945 538.86529,632.77622 z"
     id="path2905"
     style="fill:#ffffff" />
  <path
     d="M 557.21643,649.63943 C 550.66814,648.50931 545.16817,658.62887 554.44149,662.13184 C 562.65623,665.23494 567.9546,651.49266 557.21643,649.63943 z"
     id="path2907"
     style="fill:#ffffff" />
  <path
     d="M 573.58366,631.28829 C 567.03537,630.15817 561.5354,640.27773 570.80872,643.7807 C 579.02346,646.8838 584.32183,633.14152 573.58366,631.28829 z"
     id="path2909"
     style="fill:#ffffff" />
  <path
     d="M 594.41468,649.14345 C 587.86639,648.01333 582.36642,658.13289 591.63974,661.63586 C 599.85448,664.73896 605.15285,650.99668 594.41468,649.14345 z"
     id="path2911"
     style="fill:#ffffff" />
  <path
     d="M 639.05258,633.76817 C 632.50429,632.63805 627.00432,642.75761 636.27764,646.26058 C 644.49238,649.36368 649.79075,635.6214 639.05258,633.76817 z"
     id="path2913"
     style="fill:#ffffff" />
  <path
     d="M 660.87556,650.1354 C 654.32727,649.00528 648.8273,659.12484 658.10062,662.62781 C 666.31536,665.73091 671.61373,651.98863 660.87556,650.1354 z"
     id="path2915"
     style="fill:#ffffff" />
  <path
     d="M 658.39568,616.40898 C 651.84739,615.27886 646.34742,625.39842 655.62074,628.90139 C 663.83548,632.00449 669.13385,618.26221 658.39568,616.40898 z"
     id="path2917"
     style="fill:#ffffff" />
  <path
     d="M 636.07673,598.55382 C 629.52844,597.4237 624.02847,607.54326 633.30179,611.04623 C 641.51653,614.14933 646.8149,600.40705 636.07673,598.55382 z"
     id="path2919"
     style="fill:#ffffff" />
  <path
     d="M 659.38764,582.18659 C 652.83935,581.05647 647.33938,591.17603 656.6127,594.679 C 664.82744,597.7821 670.12581,584.03982 659.38764,582.18659 z"
     id="path2921"
     style="fill:#ffffff" />
  <path
     d="M 671.78706,537.05271 C 665.23877,535.92259 659.7388,546.04215 669.01212,549.54512 C 677.22686,552.64822 682.52523,538.90594 671.78706,537.05271 z"
     id="path2923"
     style="fill:#ffffff" />
  <path
     d="M 655.41983,554.4119 C 648.87154,553.28178 643.37157,563.40134 652.64489,566.90431 C 660.85963,570.00741 666.158,556.26513 655.41983,554.4119 z"
     id="path2925"
     style="fill:#ffffff" />
  <path
     d="M 649.96409,520.68548 C 643.4158,519.55536 637.91583,529.67492 647.18915,533.17789 C 655.40389,536.28099 660.70226,522.53871 649.96409,520.68548 z"
     id="path2927"
     style="fill:#ffffff" />
  <path
     d="M 637.56467,566.31534 C 631.01638,565.18522 625.51641,575.30478 634.78973,578.80775 C 643.00447,581.91085 648.30284,568.16857 637.56467,566.31534 z"
     id="path2929"
     style="fill:#ffffff" />
  <path
     d="M 614.74974,573.25901 C 608.20145,572.12889 602.70148,582.24845 611.9748,585.75142 C 620.18954,588.85452 625.48791,575.11224 614.74974,573.25901 z"
     id="path2931"
     style="fill:#ffffff" />
  <path
     d="M 593.42274,585.65843 C 586.87445,584.52831 581.37448,594.64787 590.6478,598.15084 C 598.86254,601.25394 604.16091,587.51166 593.42274,585.65843 z"
     id="path2933"
     style="fill:#ffffff" />
  <path
     d="M 582.51125,561.35557 C 575.96296,560.22545 570.46299,570.34501 579.73631,573.84798 C 587.95105,576.95108 593.24942,563.2088 582.51125,561.35557 z"
     id="path2935"
     style="fill:#ffffff" />
  <path
     d="M 567.63195,578.71476 C 561.08366,577.58464 555.58369,587.7042 564.85701,591.20717 C 573.07175,594.31027 578.37012,580.56799 567.63195,578.71476 z"
     id="path2937"
     style="fill:#ffffff" />
  <path
     d="M 563.66414,541.02053 C 557.11585,539.89041 551.61588,550.00997 560.8892,553.51294 C 569.10394,556.61604 574.40231,542.87376 563.66414,541.02053 z"
     id="path2939"
     style="fill:#ffffff" />
  <path
     d="M 557.71242,488.94297 C 551.16413,487.81285 545.66416,497.93241 554.93748,501.43538 C 563.15222,504.53848 568.45059,490.7962 557.71242,488.94297 z"
     id="path2941"
     style="fill:#ffffff" />
  <path
     d="M 571.10379,465.13609 C 564.5555,464.00597 559.05553,474.12553 568.32885,477.6285 C 576.54359,480.7316 581.84196,466.98932 571.10379,465.13609 z"
     id="path2943"
     style="fill:#ffffff" />
  <path
     d="M 615.74169,451.24874 C 609.1934,450.11862 603.69343,460.23818 612.96675,463.74115 C 621.18149,466.84425 626.47986,453.10197 615.74169,451.24874 z"
     id="path2945"
     style="fill:#ffffff" />
  <path
     d="M 642.02846,454.2246 C 635.48017,453.09448 629.9802,463.21404 639.25352,466.71701 C 647.46826,469.82011 652.76663,456.07783 642.02846,454.2246 z"
     id="path2947"
     style="fill:#ffffff" />
  <path
     d="M 663.85144,467.61597 C 657.30315,466.48585 651.80318,476.60541 661.0765,480.10838 C 669.29124,483.21148 674.58961,469.4692 663.85144,467.61597 z"
     id="path2949"
     style="fill:#ffffff" />
  <path
     d="M 663.35546,441.3292 C 656.80717,440.19908 651.3072,450.31864 660.58052,453.82161 C 668.79526,456.92471 674.09363,443.18243 663.35546,441.3292 z"
     id="path2951"
     style="fill:#ffffff" />
  <path
     d="M 634.09283,428.43381 C 627.54454,427.30369 622.04457,437.42325 631.31789,440.92622 C 639.53263,444.02932 644.831,430.28704 634.09283,428.43381 z"
     id="path2953"
     style="fill:#ffffff" />
  <path
     d="M 644.01236,402.64302 C 637.46407,401.5129 631.9641,411.63246 641.23742,415.13543 C 649.45216,418.23853 654.75053,404.49625 644.01236,402.64302 z"
     id="path2955"
     style="fill:#ffffff" />
  <path
     d="M 662.3635,411.5706 C 655.81521,410.44048 650.31524,420.56004 659.58856,424.06301 C 667.8033,427.16611 673.10167,413.42383 662.3635,411.5706 z"
     id="path2957"
     style="fill:#ffffff" />
  <path
     d="M 665.33936,380.82004 C 658.79107,379.68992 653.2911,389.80948 662.56442,393.31245 C 670.77916,396.41555 676.07753,382.67327 665.33936,380.82004 z"
     id="path2959"
     style="fill:#ffffff" />
  <path
     d="M 662.85948,353.54132 C 656.31119,352.4112 650.81122,362.53076 660.08454,366.03373 C 668.29928,369.13683 673.59765,355.39455 662.85948,353.54132 z"
     id="path2961"
     style="fill:#ffffff" />
  <path
     d="M 570.60781,387.26774 C 564.05952,386.13762 558.55955,396.25718 567.83287,399.76015 C 576.04761,402.86325 581.34598,389.12097 570.60781,387.26774 z"
     id="path2963"
     style="fill:#ffffff" />
  <path
     d="M 584.49516,359.49304 C 577.94687,358.36292 572.4469,368.48248 581.72022,371.98545 C 589.93496,375.08855 595.23333,361.34627 584.49516,359.49304 z"
     id="path2965"
     style="fill:#ffffff" />
  <path
     d="M 572.09574,333.20627 C 565.54745,332.07615 560.04748,342.19571 569.3208,345.69868 C 577.53554,348.80178 582.83391,335.0595 572.09574,333.20627 z"
     id="path2967"
     style="fill:#ffffff" />
  <path
     d="M 666.82729,322.79076 C 660.279,321.66064 654.77903,331.7802 664.05235,335.28317 C 672.26709,338.38627 677.56546,324.64399 666.82729,322.79076 z"
     id="path2969"
     style="fill:#ffffff" />
  <path
     d="M 643.02041,305.92755 C 636.47212,304.79743 630.97215,314.91699 640.24547,318.41996 C 648.46021,321.52306 653.75858,307.78078 643.02041,305.92755 z"
     id="path2971"
     style="fill:#ffffff" />
  <path
     d="M 618.71755,297.99192 C 612.16926,296.8618 606.66929,306.98136 615.94261,310.48433 C 624.15735,313.58743 629.45572,299.84515 618.71755,297.99192 z"
     id="path2973"
     style="fill:#ffffff" />
  <path
     d="M 664.34741,292.53618 C 657.79912,291.40606 652.29915,301.52562 661.57247,305.02859 C 669.78721,308.13169 675.08558,294.38941 664.34741,292.53618 z"
     id="path2975"
     style="fill:#ffffff" />
  <path
     d="M 644.01236,276.66492 C 637.46407,275.5348 631.9641,285.65436 641.23742,289.15733 C 649.45216,292.26043 654.75053,278.51815 644.01236,276.66492 z"
     id="path2977"
     style="fill:#ffffff" />
  <path
     d="M 663.85143,257.32183 C 657.30314,256.19171 651.80317,266.31127 661.07649,269.81424 C 669.29123,272.91734 674.5896,259.17506 663.85143,257.32183 z"
     id="path2979"
     style="fill:#ffffff" />
  <path
     d="M 652.44397,238.47471 C 645.89568,237.34459 640.39571,247.46415 649.66903,250.96712 C 657.88377,254.07022 663.18214,240.32794 652.44397,238.47471 z"
     id="path2981"
     style="fill:#ffffff" />
  <path
     d="M 667.81925,222.60345 C 661.27096,221.47333 655.77099,231.59289 665.04431,235.09586 C 673.25905,238.19896 678.55742,224.45668 667.81925,222.60345 z"
     id="path2983"
     style="fill:#ffffff" />
  <path
     d="M 651.94799,205.24426 C 645.3997,204.11414 639.89973,214.2337 649.17305,217.73667 C 657.38779,220.83977 662.68616,207.09749 651.94799,205.24426 z"
     id="path2985"
     style="fill:#ffffff" />
  <path
     d="M 669.30718,187.88507 C 662.75889,186.75495 657.25892,196.87451 666.53224,200.37748 C 674.74698,203.48058 680.04535,189.7383 669.30718,187.88507 z"
     id="path2987"
     style="fill:#ffffff" />
  <path
     d="M 647.4842,174.98968 C 640.93591,173.85956 635.43594,183.97912 644.70926,187.48209 C 652.924,190.58519 658.22237,176.84291 647.4842,174.98968 z"
     id="path2989"
     style="fill:#ffffff" />
  <path
     d="M 665.83534,157.13452 C 659.28705,156.0044 653.78708,166.12396 663.0604,169.62693 C 671.27514,172.73003 676.57351,158.98775 665.83534,157.13452 z"
     id="path2991"
     style="fill:#ffffff" />
  <path
     d="M 648.47615,140.27131 C 641.92786,139.14119 636.42789,149.26075 645.70121,152.76372 C 653.91595,155.86682 659.21432,142.12454 648.47615,140.27131 z"
     id="path2993"
     style="fill:#ffffff" />
  <path
     d="M 663.35545,124.89603 C 656.80716,123.76591 651.30719,133.88547 660.58051,137.38844 C 668.79525,140.49154 674.09362,126.74926 663.35545,124.89603 z"
     id="path2995"
     style="fill:#ffffff" />
  <path
     d="M 564.16011,275.67297 C 557.61182,274.54285 552.11185,284.66241 561.38517,288.16538 C 569.59991,291.26848 574.89828,277.5262 564.16011,275.67297 z"
     id="path2997"
     style="fill:#ffffff" />
  <path
     d="M 579.53539,252.85804 C 572.9871,251.72792 567.48713,261.84748 576.76045,265.35045 C 584.97519,268.45355 590.27356,254.71127 579.53539,252.85804 z"
     id="path2999"
     style="fill:#ffffff" />
  <path
     d="M 569.61586,229.05116 C 563.06757,227.92104 557.5676,238.0406 566.84092,241.54357 C 575.05566,244.64667 580.35403,230.90439 569.61586,229.05116 z"
     id="path3001"
     style="fill:#ffffff" />
  <path
     d="M 579.03942,194.82877 C 572.49113,193.69865 566.99116,203.81821 576.26448,207.32118 C 584.47922,210.42428 589.77759,196.682 579.03942,194.82877 z"
     id="path3003"
     style="fill:#ffffff" />
  <path
     d="M 567.13598,166.5581 C 560.58769,165.42798 555.08772,175.54754 564.36104,179.05051 C 572.57578,182.15361 577.87415,168.41133 567.13598,166.5581 z"
     id="path3005"
     style="fill:#ffffff" />
  <path
     d="M 587.967,145.72708 C 581.41871,144.59696 575.91874,154.71652 585.19206,158.21949 C 593.4068,161.32259 598.70517,147.58031 587.967,145.72708 z"
     id="path3007"
     style="fill:#ffffff" />
  <path
     d="M 572.59172,127.37594 C 566.04343,126.24582 560.54346,136.36538 569.81678,139.86835 C 578.03152,142.97145 583.32989,129.22917 572.59172,127.37594 z"
     id="path3009"
     style="fill:#ffffff" />
  <path
     d="M 562.67219,96.625383 C 556.1239,95.495263 550.62393,105.61482 559.89725,109.11779 C 568.11199,112.22089 573.41036,98.478613 562.67219,96.625383 z"
     id="path3011"
     style="fill:#ffffff" />
  <path
     d="M 585.48712,105.55296 C 578.93883,104.42284 573.43886,114.5424 582.71218,118.04537 C 590.92692,121.14847 596.22529,107.40619 585.48712,105.55296 z"
     id="path3013"
     style="fill:#ffffff" />
  <path
     d="M 605.32619,117.4564 C 598.7779,116.32628 593.27793,126.44584 602.55125,129.94881 C 610.76599,133.05191 616.06436,119.30963 605.32619,117.4564 z"
     id="path3015"
     style="fill:#ffffff" />
  <path
     d="M 627.64515,88.193774 C 621.09686,87.063654 615.59689,97.183214 624.87021,100.68618 C 633.08495,103.78928 638.38332,90.047004 627.64515,88.193774 z"
     id="path3017"
     style="fill:#ffffff" />
  <path
     d="M 660.37961,94.145495 C 653.83132,93.015375 648.33135,103.13493 657.60467,106.6379 C 665.81941,109.741 671.11778,95.998725 660.37961,94.145495 z"
     id="path3019"
     style="fill:#ffffff" />
  <path
     d="M 643.5164,65.874822 C 636.96811,64.744702 631.46814,74.864257 640.74146,78.367227 C 648.9562,81.470327 654.25457,67.728052 643.5164,65.874822 z"
     id="path3021"
     style="fill:#ffffff" />
  <path
     d="M 666.82731,66.370799 C 660.27902,65.240679 654.77905,75.360234 664.05237,78.863204 C 672.26711,81.966304 677.56548,68.224029 666.82731,66.370799 z"
     id="path3023"
     style="fill:#ffffff" />
  <path
     d="M 661.75324,35.012474 C 655.20495,33.882354 649.70498,44.001909 658.9783,47.504879 C 667.19304,50.607979 672.49141,36.865704 661.75324,35.012474 z"
     id="path3045"
     style="fill:#ffffff" />
  <path
     d="M 633.69656,29.401138 C 627.14827,28.271018 621.6483,38.390573 630.92162,41.893543 C 639.13636,44.996643 644.43473,31.254368 633.69656,29.401138 z"
     id="path3047"
     style="fill:#ffffff" />
  <path
     d="M 600.72996,31.505389 C 594.18167,30.375269 588.6817,40.494824 597.95502,43.997794 C 606.16976,47.100894 611.46813,33.358619 600.72996,31.505389 z"
     id="path3049"
     style="fill:#ffffff" />
  <path
     d="M 575.47895,26.59547 C 568.93066,25.46535 563.43069,35.584905 572.70401,39.087875 C 580.91875,42.190975 586.21712,28.4487 575.47895,26.59547 z"
     id="path3051"
     style="fill:#ffffff" />
  <path
     d="M 562.85344,49.040814 C 556.30515,47.910694 550.80518,58.030249 560.0785,61.533219 C 568.29324,64.636319 573.59161,50.894044 562.85344,49.040814 z"
     id="path3053"
     style="fill:#ffffff" />
  <path
     d="M 540.4081,27.296887 C 533.85981,26.166767 528.35984,36.286322 537.63316,39.789292 C 545.8479,42.892392 551.14627,29.150117 540.4081,27.296887 z"
     id="path3055"
     style="fill:#ffffff" />
  <path
     d="M 513.05284,49.040814 C 506.50455,47.910694 501.00458,58.030249 510.2779,61.533219 C 518.49264,64.636319 523.79101,50.894044 513.05284,49.040814 z"
     id="path3057"
     style="fill:#ffffff" />
  <path
     d="M 489.90608,32.206806 C 483.35779,31.076686 477.85782,41.196241 487.13114,44.699211 C 495.34588,47.802311 500.64425,34.060036 489.90608,32.206806 z"
     id="path3059"
     style="fill:#ffffff" />
  <path
     d="M 467.46074,51.145065 C 460.91245,50.014945 455.41248,60.1345 464.6858,63.63747 C 472.90054,66.74057 478.19891,52.998295 467.46074,51.145065 z"
     id="path3061"
     style="fill:#ffffff" />
  <path
     d="M 445.71681,28.699721 C 439.16852,27.569601 433.66855,37.689156 442.94187,41.192126 C 451.15661,44.295226 456.45498,30.552951 445.71681,28.699721 z"
     id="path3063"
     style="fill:#ffffff" />
  <path
     d="M 422.57005,49.742231 C 416.02176,48.612111 410.52179,58.731666 419.79511,62.234636 C 428.00985,65.337736 433.30822,51.595461 422.57005,49.742231 z"
     id="path3065"
     style="fill:#ffffff" />
  <path
     d="M 350.3241,49.742231 C 343.77581,48.612111 338.27584,58.731666 347.54916,62.234636 C 355.7639,65.337736 361.06227,51.595461 350.3241,49.742231 z"
     id="path3067"
     style="fill:#ffffff" />
  <path
     d="M 366.45669,27.296887 C 359.9084,26.166767 354.40843,36.286322 363.68175,39.789292 C 371.89649,42.892392 377.19486,29.150117 366.45669,27.296887 z"
     id="path3069"
     style="fill:#ffffff" />
  <path
     d="M 381.88786,51.145065 C 375.33957,50.014945 369.8396,60.1345 379.11292,63.63747 C 387.32766,66.74057 392.62603,52.998295 381.88786,51.145065 z"
     id="path3071"
     style="fill:#ffffff" />
  <path
     d="M 400.12471,25.894053 C 393.57642,24.763933 388.07645,34.883488 397.34977,38.386458 C 405.56451,41.489558 410.86288,27.747283 400.12471,25.894053 z"
     id="path3073"
     style="fill:#ffffff" />
  <path
     d="M 262.64697,49.742231 C 256.09868,48.612111 250.59871,58.731666 259.87203,62.234636 C 268.08677,65.337736 273.38514,51.595461 262.64697,49.742231 z"
     id="path3075"
     style="fill:#ffffff" />
  <path
     d="M 282.98807,23.789802 C 276.43978,22.659682 270.93981,32.779237 280.21313,36.282207 C 288.42787,39.385307 293.72624,25.643032 282.98807,23.789802 z"
     id="path3077"
     style="fill:#ffffff" />
  <path
     d="M 299.82208,48.339397 C 293.27379,47.209277 287.77382,57.328832 297.04714,60.831802 C 305.26188,63.934902 310.56025,50.192627 299.82208,48.339397 z"
     id="path3079"
     style="fill:#ffffff" />
  <path
     d="M 318.76033,25.192636 C 312.21204,24.062516 306.71207,34.182071 315.98539,37.685041 C 324.20013,40.788141 329.4985,27.045866 318.76033,25.192636 z"
     id="path3081"
     style="fill:#ffffff" />
  <path
     d="M 172.86559,46.235146 C 166.3173,45.105026 160.81733,55.224581 170.09065,58.727551 C 178.30539,61.830651 183.60376,48.088376 172.86559,46.235146 z"
     id="path3083"
     style="fill:#ffffff" />
  <path
     d="M 196.01235,26.59547 C 189.46406,25.46535 183.96409,35.584905 193.23741,39.087875 C 201.45215,42.190975 206.75052,28.4487 196.01235,26.59547 z"
     id="path3085"
     style="fill:#ffffff" />
  <path
     d="M 216.35345,46.235146 C 209.80516,45.105026 204.30519,55.224581 213.57851,58.727551 C 221.79325,61.830651 227.09162,48.088376 216.35345,46.235146 z"
     id="path3087"
     style="fill:#ffffff" />
  <path
     d="M 237.39596,25.894053 C 230.84767,24.763933 225.3477,34.883488 234.62102,38.386458 C 242.83576,41.489558 248.13413,27.747283 237.39596,25.894053 z"
     id="path3089"
     style="fill:#ffffff" />
  <path
     d="M 87.994132,23.088385 C 81.445842,21.958265 75.945872,32.07782 85.219192,35.58079 C 93.433932,38.68389 98.732302,24.941615 87.994132,23.088385 z"
     id="path3091"
     style="fill:#ffffff" />
  <path
     d="M 119.5579,22.386968 C 113.00961,21.256848 107.50964,31.376403 116.78296,34.879373 C 124.9977,37.982473 130.29607,24.240198 119.5579,22.386968 z"
     id="path3093"
     style="fill:#ffffff" />
  <path
     d="M 132.88482,46.235146 C 126.33653,45.105026 120.83656,55.224581 130.10988,58.727551 C 138.32462,61.830651 143.62299,48.088376 132.88482,46.235146 z"
     id="path3095"
     style="fill:#ffffff" />
  <path
     d="M 148.31599,25.192636 C 141.7677,24.062516 136.26773,34.182071 145.54105,37.685041 C 153.75579,40.788141 159.05416,27.045866 148.31599,25.192636 z"
     id="path3097"
     style="fill:#ffffff" />
  <path
     d="M 36.089274,74.291826 C 29.540984,73.161706 24.041014,83.281261 33.314334,86.784231 C 41.529074,89.887331 46.827444,76.145056 36.089274,74.291826 z"
     id="path3099"
     style="fill:#ffffff" />
  <path
     d="M 62.041703,49.742231 C 55.493413,48.612111 49.993443,58.731666 59.266763,62.234636 C 67.481503,65.337736 72.779873,51.595461 62.041703,49.742231 z"
     id="path3101"
     style="fill:#ffffff" />
  <path
     d="M 32.582189,48.339397 C 26.033899,47.209277 20.533929,57.328832 29.807249,60.831802 C 38.021989,63.934902 43.320359,50.192627 32.582189,48.339397 z"
     id="path3103"
     style="fill:#ffffff" />
  <path
     d="M 48.71478,23.789802 C 42.16649,22.659682 36.66652,32.779237 45.93984,36.282207 C 54.15458,39.385307 59.45295,25.643032 48.71478,23.789802 z"
     id="path3105"
     style="fill:#ffffff" />
  <path
     d="M 106.23097,93.931502 C 99.682684,92.801382 94.182714,102.92094 103.45603,106.42391 C 111.67077,109.52701 116.96914,95.784732 106.23097,93.931502 z"
     id="path3107"
     style="fill:#ffffff" />
  <path
     d="M 83.78563,100.94567 C 77.23734,99.815552 71.73737,109.93511 81.01069,113.43808 C 89.22543,116.54118 94.5238,102.7989 83.78563,100.94567 z"
     id="path3109"
     style="fill:#ffffff" />
  <path
     d="M 38.894942,109.36268 C 32.346652,108.23256 26.846682,118.35211 36.120002,121.85508 C 44.334742,124.95818 49.633112,111.21591 38.894942,109.36268 z"
     id="path3111"
     style="fill:#ffffff" />
  <path
     d="M 64.145954,114.97401 C 57.597664,113.84389 52.097694,123.96345 61.371014,127.46642 C 69.585754,130.56952 74.884124,116.82724 64.145954,114.97401 z"
     id="path3113"
     style="fill:#ffffff" />
  <path
     d="M 61.340286,81.305996 C 54.791996,80.175876 49.292026,90.295431 58.565346,93.798401 C 66.780086,96.901501 72.078456,83.159226 61.340286,81.305996 z"
     id="path3115"
     style="fill:#ffffff" />
  <path
     d="M 78.875711,177.40012 C 72.327421,176.27001 66.827451,186.38956 76.100771,189.89253 C 84.315511,192.99563 89.613881,179.25335 78.875711,177.40012 z"
     id="path3117"
     style="fill:#ffffff" />
  <path
     d="M 69.055873,149.34344 C 62.507583,148.21333 57.007613,158.33288 66.280933,161.83585 C 74.495673,164.93895 79.794043,151.19667 69.055873,149.34344 z"
     id="path3119"
     style="fill:#ffffff" />
  <path
     d="M 87.292715,131.80802 C 80.744425,130.6779 75.244455,140.79746 84.517775,144.30043 C 92.732515,147.40353 98.030885,133.66125 87.292715,131.80802 z"
     id="path3121"
     style="fill:#ffffff" />
  <path
     d="M 112.54373,113.57118 C 105.99544,112.44106 100.49547,122.56062 109.76879,126.06359 C 117.98353,129.16669 123.2819,115.42441 112.54373,113.57118 z"
     id="path3123"
     style="fill:#ffffff" />
  <path
     d="M 207.93644,98.841426 C 201.38815,97.711301 195.88818,107.83086 205.1615,111.33383 C 213.37624,114.43693 218.67461,100.69466 207.93644,98.841426 z"
     id="path3125"
     style="fill:#ffffff" />
  <path
     d="M 182.68542,97.438587 C 176.13714,96.308467 170.63717,106.42802 179.91048,109.93099 C 188.12522,113.03409 193.42359,99.291817 182.68542,97.438587 z"
     id="path3127"
     style="fill:#ffffff" />
  <path
     d="M 157.43441,103.04992 C 150.88613,101.9198 145.38616,112.03936 154.65947,115.54233 C 162.87421,118.64543 168.17258,104.90315 157.43441,103.04992 z"
     id="path3129"
     style="fill:#ffffff" />
  <path
     d="M 131.48198,98.140004 C 124.9337,97.009884 119.43373,107.12944 128.70704,110.63241 C 136.92178,113.73551 142.22015,99.993234 131.48198,98.140004 z"
     id="path3131"
     style="fill:#ffffff" />
  <path
     d="M 194.60951,150.04487 C 188.06122,148.91474 182.56125,159.0343 191.83457,162.53727 C 200.04931,165.64037 205.34768,151.8981 194.60951,150.04487 z"
     id="path3133"
     style="fill:#ffffff" />
  <path
     d="M 173.567,147.94061 C 167.01871,146.81049 161.51874,156.93004 170.79206,160.43301 C 179.0068,163.53611 184.30517,149.79384 173.567,147.94061 z"
     id="path3135"
     style="fill:#ffffff" />
  <path
     d="M 177.07409,122.6896 C 170.5258,121.55948 165.02583,131.67903 174.29915,135.182 C 182.51389,138.2851 187.81226,124.54283 177.07409,122.6896 z"
     id="path3137"
     style="fill:#ffffff" />
  <path
     d="M 199.51943,126.89811 C 192.97114,125.76798 187.47117,135.88754 196.74449,139.39051 C 204.95923,142.49361 210.2576,128.75134 199.51943,126.89811 z"
     id="path3139"
     style="fill:#ffffff" />
  <path
     d="M 147.61457,203.35256 C 141.06628,202.22244 135.56631,212.34199 144.83963,215.84496 C 153.05437,218.94806 158.35274,205.20579 147.61457,203.35256 z"
     id="path3141"
     style="fill:#ffffff" />
  <path
     d="M 170.05991,203.35256 C 163.51162,202.22244 158.01165,212.34199 167.28497,215.84496 C 175.49971,218.94806 180.79808,205.20579 170.05991,203.35256 z"
     id="path3143"
     style="fill:#ffffff" />
  <path
     d="M 186.89392,173.19163 C 180.34563,172.06151 174.84566,182.18106 184.11898,185.68403 C 192.33372,188.78713 197.63209,175.04486 186.89392,173.19163 z"
     id="path3145"
     style="fill:#ffffff" />
  <path
     d="M 168.65708,174.59446 C 162.10879,173.46434 156.60882,183.58389 165.88214,187.08686 C 174.09688,190.18996 179.39525,176.44769 168.65708,174.59446 z"
     id="path3147"
     style="fill:#ffffff" />
  <path
     d="M 144.8089,175.99729 C 138.26061,174.86717 132.76064,184.98672 142.03396,188.48969 C 150.2487,191.59279 155.54707,177.85052 144.8089,175.99729 z"
     id="path3149"
     style="fill:#ffffff" />
  <path
     d="M 151.12166,145.83636 C 144.57337,144.70624 139.0734,154.82579 148.34672,158.32876 C 156.56146,161.43186 161.85983,147.68959 151.12166,145.83636 z"
     id="path3151"
     style="fill:#ffffff" />
  <path
     d="M 132.88481,265.77867 C 126.33652,264.64855 120.83655,274.7681 130.10987,278.27107 C 138.32461,281.37417 143.62298,267.6319 132.88481,265.77867 z"
     id="path3153"
     style="fill:#ffffff" />
  <path
     d="M 151.12166,234.21491 C 144.57337,233.08479 139.0734,243.20434 148.34672,246.70731 C 156.56146,249.81041 161.85983,236.06814 151.12166,234.21491 z"
     id="path3155"
     style="fill:#ffffff" />
  <path
     d="M 40.999193,272.09143 C 34.450903,270.96131 28.950933,281.08086 38.224253,284.58383 C 46.438993,287.68693 51.737363,273.94466 40.999193,272.09143 z"
     id="path3157"
     style="fill:#ffffff" />
  <path
     d="M 59.937452,256.66025 C 53.389162,255.53013 47.889192,265.64968 57.162512,269.15265 C 65.377252,272.25575 70.675622,258.51348 59.937452,256.66025 z"
     id="path3159"
     style="fill:#ffffff" />
  <path
     d="M 36.790691,241.22908 C 30.242401,240.09896 24.742431,250.21851 34.015751,253.72148 C 42.230491,256.82458 47.528861,243.08231 36.790691,241.22908 z"
     id="path3161"
     style="fill:#ffffff" />
  <path
     d="M 32.582189,212.47098 C 26.033899,211.34086 20.533929,221.46041 29.807249,224.96338 C 38.021989,228.06648 43.320359,214.32421 32.582189,212.47098 z"
     id="path3163"
     style="fill:#ffffff" />
  <path
     d="M 33.283606,174.59446 C 26.735316,173.46434 21.235346,183.58389 30.508666,187.08686 C 38.723406,190.18996 44.021776,176.44769 33.283606,174.59446 z"
     id="path3165"
     style="fill:#ffffff" />
  <path
     d="M 35.387857,136.01653 C 28.839567,134.88641 23.339597,145.00596 32.612917,148.50893 C 40.827657,151.61203 46.126027,137.86976 35.387857,136.01653 z"
     id="path3167"
     style="fill:#ffffff" />
  <path
     d="M 31.880772,338.72605 C 25.332482,337.59593 19.832512,347.71548 29.105832,351.21845 C 37.320572,354.32155 42.618942,340.57928 31.880772,338.72605 z"
     id="path3169"
     style="fill:#ffffff" />
  <path
     d="M 32.582189,304.35661 C 26.033899,303.22649 20.533929,313.34604 29.807249,316.84901 C 38.021989,319.95211 43.320359,306.20984 32.582189,304.35661 z"
     id="path3171"
     style="fill:#ffffff" />
  <path
     d="M 85.889871,352.75438 C 79.341581,351.62426 73.841611,361.74381 83.114931,365.24678 C 91.329671,368.34988 96.628041,354.60761 85.889871,352.75438 z"
     id="path3173"
     style="fill:#ffffff" />
  <path
     d="M 94.306875,325.39912 C 87.758585,324.269 82.258615,334.38855 91.531935,337.89152 C 99.746675,340.99462 105.04504,327.25235 94.306875,325.39912 z"
     id="path3175"
     style="fill:#ffffff" />
  <path
     d="M 108.33521,344.33737 C 101.78692,343.20725 96.286955,353.3268 105.56027,356.82977 C 113.77501,359.93287 119.07338,346.1906 108.33521,344.33737 z"
     id="path3177"
     style="fill:#ffffff" />
  <path
     d="M 118.15505,319.08636 C 111.60676,317.95624 106.10679,328.07579 115.38011,331.57876 C 123.59485,334.68186 128.89322,320.93959 118.15505,319.08636 z"
     id="path3179"
     style="fill:#ffffff" />
  <path
     d="M 83.78562,403.2564 C 77.23733,402.12628 71.73736,412.24583 81.01068,415.7488 C 89.22542,418.8519 94.52379,405.10963 83.78562,403.2564 z"
     id="path3181"
     style="fill:#ffffff" />
  <path
     d="M 51.520438,402.55499 C 44.972148,401.42487 39.472178,411.54442 48.745498,415.04739 C 56.960238,418.15049 62.258608,404.40822 51.520438,402.55499 z"
     id="path3183"
     style="fill:#ffffff" />
  <path
     d="M 33.283596,382.91531 C 26.735306,381.78519 21.235336,391.90474 30.508656,395.40771 C 38.723396,398.51081 44.021766,384.76854 33.283596,382.91531 z"
     id="path3185"
     style="fill:#ffffff" />
  <path
     d="M 67.653029,379.40823 C 61.104739,378.27811 55.604769,388.39766 64.878089,391.90063 C 73.092829,395.00373 78.391199,381.26146 67.653029,379.40823 z"
     id="path3187"
     style="fill:#ffffff" />
  <path
     d="M 96.411126,375.90114 C 89.862836,374.77102 84.362866,384.89057 93.636186,388.39354 C 101.85093,391.49664 107.1493,377.75437 96.411126,375.90114 z"
     id="path3189"
     style="fill:#ffffff" />
  <path
     d="M 33.985013,476.20377 C 27.436723,475.07365 21.936753,485.1932 31.210073,488.69617 C 39.424813,491.79927 44.723183,478.057 33.985013,476.20377 z"
     id="path3191"
     style="fill:#ffffff" />
  <path
     d="M 83.78562,504.96187 C 77.23733,503.83175 71.73736,513.9513 81.01068,517.45427 C 89.22542,520.55737 94.52379,506.8151 83.78562,504.96187 z"
     id="path3193"
     style="fill:#ffffff" />
  <path
     d="M 62.74311,487.42644 C 56.19482,486.29632 50.69485,496.41587 59.96817,499.91884 C 68.18291,503.02194 73.48128,489.27967 62.74311,487.42644 z"
     id="path3195"
     style="fill:#ffffff" />
  <path
     d="M 69.75728,453.75842 C 63.20899,452.6283 57.70902,462.74785 66.98234,466.25082 C 75.19708,469.35392 80.49545,455.61165 69.75728,453.75842 z"
     id="path3197"
     style="fill:#ffffff" />
  <path
     d="M 39.596349,437.62583 C 33.048059,436.49571 27.548089,446.61526 36.821409,450.11823 C 45.036149,453.22133 50.334519,439.47906 39.596349,437.62583 z"
     id="path3199"
     style="fill:#ffffff" />
  <path
     d="M 69.75728,425.00033 C 63.20899,423.87021 57.70902,433.98976 66.98234,437.49273 C 75.19708,440.59583 80.49545,426.85356 69.75728,425.00033 z"
     id="path3201"
     style="fill:#ffffff" />
  <path
     d="M 101.32105,575.80499 C 94.772755,574.67487 89.272785,584.79442 98.546105,588.29739 C 106.76085,591.40049 112.05922,577.65822 101.32105,575.80499 z"
     id="path3203"
     style="fill:#ffffff" />
  <path
     d="M 90.098373,554.06106 C 83.550083,552.93094 78.050113,563.05049 87.323433,566.55346 C 95.538173,569.65656 100.83654,555.91429 90.098373,554.06106 z"
     id="path3205"
     style="fill:#ffffff" />
  <path
     d="M 111.14088,547.04689 C 104.59259,545.91677 99.092623,556.03632 108.36594,559.53929 C 116.58068,562.64239 121.87905,548.90012 111.14088,547.04689 z"
     id="path3207"
     style="fill:#ffffff" />
  <path
     d="M 33.283601,555.4639 C 26.735306,554.33378 21.235336,564.45333 30.508656,567.9563 C 38.723401,571.0594 44.021771,557.31713 33.283601,555.4639 z"
     id="path3209"
     style="fill:#ffffff" />
  <path
     d="M 34.686435,647.34953 C 28.13814,646.21941 22.63817,656.33896 31.91149,659.84193 C 40.126235,662.94503 45.424605,649.20276 34.686435,647.34953 z"
     id="path3211"
     style="fill:#ffffff" />
  <path
     d="M 38.19352,616.48718 C 31.645225,615.35706 26.145255,625.47661 35.418575,628.97958 C 43.63332,632.08268 48.93169,618.34041 38.19352,616.48718 z"
     id="path3213"
     style="fill:#ffffff" />
  <path
     d="M 34.686435,582.81916 C 28.13814,581.68904 22.63817,591.80859 31.91149,595.31156 C 40.126235,598.41466 45.424605,584.67239 34.686435,582.81916 z"
     id="path3215"
     style="fill:#ffffff" />
  <path
     d="M 97.813965,646.64811 C 91.26567,645.51799 85.7657,655.63754 95.03902,659.14051 C 103.25377,662.24361 108.55214,648.50134 97.813965,646.64811 z"
     id="path3217"
     style="fill:#ffffff" />
  <path
     d="M 61.340281,646.64811 C 54.791986,645.51799 49.292016,655.63754 58.565336,659.14051 C 66.780081,662.24361 72.078451,648.50134 61.340281,646.64811 z"
     id="path3219"
     style="fill:#ffffff" />
  <path
     d="M 583.00723,413.30652 C 576.45894,412.1764 570.95897,422.29596 580.23229,425.79893 C 588.44703,428.90203 593.7454,415.15975 583.00723,413.30652 z"
     id="path3248"
     style="fill:#ffffff" />
  <path
     d="M 629.13305,652.61529 C 622.58476,651.48517 617.08479,661.60473 626.35811,665.1077 C 634.57285,668.2108 639.87122,654.46852 629.13305,652.61529 z"
     id="path3250"
     style="fill:#ffffff" />
</svg>
